<svg xmlns="http://www.w3.org/2000/svg" viewBox="0 0 192 192" width="192" height="192">
  <defs>
    <linearGradient id="bg" x1="0%" y1="0%" x2="100%" y2="100%">
      <stop offset="0%" style="stop-color:#4f6ef7"/>
      <stop offset="100%" style="stop-color:#6c5ce7"/>
    </linearGradient>
  </defs>
  <!-- Achtergrond -->
  <rect width="192" height="192" rx="40" fill="url(#bg)"/>
  <!-- Kalender icoon -->
  <rect x="36" y="56" width="120" height="100" rx="10" fill="white" opacity="0.95"/>
  <!-- Kalender bovenbalk -->
  <rect x="36" y="56" width="120" height="32" rx="10" fill="white" opacity="0.15"/>
  <rect x="36" y="72" width="120" height="16" fill="white" opacity="0.15"/>
  <!-- Ringetjes -->
  <rect x="66" y="44" width="10" height="24" rx="5" fill="white"/>
  <rect x="116" y="44" width="10" height="24" rx="5" fill="white"/>
  <!-- Rasterlijnen -->
  <line x1="36" y1="108" x2="156" y2="108" stroke="#4f6ef7" stroke-width="1.5" opacity="0.3"/>
  <line x1="36" y1="128" x2="156" y2="128" stroke="#4f6ef7" stroke-width="1.5" opacity="0.3"/>
  <line x1="76" y1="88" x2="76" y2="156" stroke="#4f6ef7" stroke-width="1.5" opacity="0.3"/>
  <line x1="116" y1="88" x2="116" y2="156" stroke="#4f6ef7" stroke-width="1.5" opacity="0.3"/>
  <!-- Stip vandaag -->
  <circle cx="56" cy="118" r="8" fill="#4f6ef7"/>
  <!-- Vinkjes uren -->
  <rect x="82" y="113" width="24" height="10" rx="3" fill="#4f6ef7" opacity="0.5"/>
  <rect x="122" y="113" width="24" height="10" rx="3" fill="#2dcc7e" opacity="0.7"/>
  <rect x="42" y="138" width="24" height="10" rx="3" fill="#4f6ef7" opacity="0.5"/>
  <rect x="82" y="138" width="24" height="10" rx="3" fill="#4f6ef7" opacity="0.5"/>
</svg>
